<!-- Generator: Adobe Illustrator 19.2.0, SVG Export Plug-In  -->
<svg version="1.1"
	 xmlns="http://www.w3.org/2000/svg" xmlns:xlink="http://www.w3.org/1999/xlink" xmlns:a="http://ns.adobe.com/AdobeSVGViewerExtensions/3.0/"
	 x="0px" y="0px" width="47.985px" height="24.282px" viewBox="0 0 47.985 24.282"
	 style="enable-background:new 0 0 47.985 24.282;" xml:space="preserve">
<style type="text/css">
	.st0{fill:#253844;}
</style>
<defs>
</defs>
<g>
	<path class="st0" d="M47.924,11.827c-0.018-0.05-0.02-0.102-0.043-0.148C47.631,11.202,41.582,0,23.512,0
		C9.425,0,0.768,10.804,0.223,11.503c0,0-0.001,0.002-0.002,0.002c-0.005,0.008-0.016,0.021-0.02,0.025
		c-0.029,0.038-0.037,0.083-0.061,0.123c-0.039,0.07-0.082,0.136-0.104,0.212c-0.019,0.062-0.016,0.124-0.021,0.187
		c-0.006,0.065-0.02,0.128-0.013,0.193c0.008,0.076,0.038,0.146,0.063,0.219c0.016,0.046,0.017,0.095,0.04,0.14
		c0.249,0.477,6.298,11.678,24.368,11.678c14.087,0,22.746-10.805,23.289-11.503c0,0,0.002-0.001,0.002-0.002
		c0.006-0.007,0.016-0.02,0.02-0.024c0.029-0.038,0.039-0.084,0.061-0.125c0.039-0.068,0.082-0.134,0.104-0.21
		c0.02-0.061,0.016-0.123,0.021-0.186c0.006-0.065,0.02-0.129,0.014-0.195C47.976,11.963,47.947,11.896,47.924,11.827z
		 M23.994,23.201c-6.097,0-11.058-4.961-11.058-11.06S17.897,1.08,23.994,1.08c6.099,0,11.062,4.962,11.062,11.061
		S30.094,23.201,23.994,23.201z"/>
	<path class="st0" d="M23.994,6.746c-2.975,0-5.394,2.42-5.394,5.395c0,2.974,2.419,5.394,5.394,5.394
		c2.972,0,5.392-2.42,5.392-5.394C29.387,9.166,26.967,6.746,23.994,6.746z"/>
</g>
</svg>